<svg xmlns="http://www.w3.org/2000/svg" xmlns:xlink="http://www.w3.org/1999/xlink" width="300" zoomAndPan="magnify" viewBox="0 0 375 374.999991" height="300" preserveAspectRatio="xMidYMid meet" version="1.0"><defs><g/></defs><g fill="#171616" fill-opacity="1"><g transform="translate(9.962797, 228.759155)"><g><path d="M 27.375 -42.171875 L 25.546875 -42.171875 L 33.734375 -21.140625 L 33.734375 0 L 1.34375 0 L 1.34375 -85.5625 L 37.03125 -85.5625 L 54.515625 -45.46875 L 72 -85.5625 L 107.5625 -85.5625 L 107.5625 0 L 75.296875 0 L 75.296875 -21.140625 L 83.484375 -42.171875 L 81.65625 -42.171875 L 69.421875 -10.75 L 39.609375 -10.75 Z M 27.375 -42.171875 "/></g></g></g><path stroke-linecap="butt" transform="matrix(0.75, 0, 0, 0.75, 90.54273, 134.455304)" fill="none" stroke-linejoin="miter" d="M 55.396156 55.42939 C 60.125323 55.42939 64.547198 56.314807 68.661782 58.096057 C 72.776365 59.872099 76.41699 62.325224 79.583657 65.450224 C 82.750324 68.559599 85.224283 72.195016 87.000324 76.346058 C 88.776366 80.4971 89.666991 84.950225 89.666991 89.700226 L 89.666991 124.002311 L 61.187823 124.002311 L 61.187823 89.700226 C 61.187823 88.116892 60.620114 86.736684 59.479489 85.5596 C 58.338864 84.361684 56.979489 83.762725 55.396156 83.762725 C 53.734697 83.762725 52.323239 84.361684 51.166989 85.5596 C 50.026364 86.736684 49.453447 88.116892 49.453447 89.700226 C 49.453447 91.283559 50.026364 92.674184 51.166989 93.872101 C 52.323239 95.049184 53.734697 95.637726 55.396156 95.637726 L 59.536781 95.637726 L 59.536781 124.002311 L 55.396156 124.002311 C 50.640947 124.002311 46.19303 123.111686 42.03678 121.335644 C 37.885738 119.559603 34.245113 117.085644 31.120112 113.918977 C 27.989904 110.75231 25.536779 107.111685 23.760737 102.997101 C 21.984695 98.882518 21.09407 94.450226 21.09407 89.700226 C 21.09407 84.950225 21.984695 80.4971 23.760737 76.346058 C 25.536779 72.195016 27.989904 68.559599 31.120112 65.450224 C 34.245113 62.325224 37.885738 59.872099 42.03678 58.096057 C 46.19303 56.314807 50.640947 55.42939 55.396156 55.42939 Z M 55.396156 55.42939 " stroke="#fff9f9" stroke-width="8.900025" stroke-opacity="1" stroke-miterlimit="4"/><g fill="#171616" fill-opacity="1"><g transform="translate(105.472416, 227.455298)"><g><path d="M 26.609375 -51.4375 C 30.171875 -51.4375 33.492188 -50.769531 36.578125 -49.4375 C 39.660156 -48.101562 42.390625 -46.265625 44.765625 -43.921875 C 47.140625 -41.578125 48.992188 -38.847656 50.328125 -35.734375 C 51.660156 -32.617188 52.328125 -29.28125 52.328125 -25.71875 L 52.328125 0 L 30.96875 0 L 30.96875 -25.71875 C 30.96875 -26.90625 30.535156 -27.941406 29.671875 -28.828125 C 28.816406 -29.722656 27.796875 -30.171875 26.609375 -30.171875 C 25.359375 -30.171875 24.300781 -29.722656 23.4375 -28.828125 C 22.582031 -27.941406 22.15625 -26.90625 22.15625 -25.71875 C 22.15625 -24.53125 22.582031 -23.488281 23.4375 -22.59375 C 24.300781 -21.707031 25.359375 -21.265625 26.609375 -21.265625 L 29.71875 -21.265625 L 29.71875 0 L 26.609375 0 C 23.046875 0 19.707031 -0.664062 16.59375 -2 C 13.476562 -3.332031 10.75 -5.1875 8.40625 -7.5625 C 6.0625 -9.9375 4.222656 -12.664062 2.890625 -15.75 C 1.554688 -18.832031 0.890625 -22.15625 0.890625 -25.71875 C 0.890625 -29.28125 1.554688 -32.617188 2.890625 -35.734375 C 4.222656 -38.847656 6.0625 -41.578125 8.40625 -43.921875 C 10.75 -46.265625 13.476562 -48.101562 16.59375 -49.4375 C 19.707031 -50.769531 23.046875 -51.4375 26.609375 -51.4375 Z M 26.609375 -51.4375 "/></g></g></g><path stroke-linecap="butt" transform="matrix(0.75, 0, 0, 0.75, 123.950123, 134.455304)" fill="none" stroke-linejoin="miter" d="M 37.155047 40.830431 L 66.358174 40.830431 L 66.358174 124.002311 L 37.155047 124.002311 Z M 37.155047 40.830431 " stroke="#fff9f9" stroke-width="8.900025" stroke-opacity="1" stroke-miterlimit="4"/><g fill="#171616" fill-opacity="1"><g transform="translate(150.926683, 227.455298)"><g><path d="M 0.890625 -62.390625 L 22.78125 -62.390625 L 22.78125 0 L 0.890625 0 Z M 0.890625 -62.390625 "/></g></g></g><path stroke-linecap="butt" transform="matrix(0.75, 0, 0, 0.75, 162.941406, 134.455304)" fill="none" stroke-linejoin="miter" d="M 12.125001 124.002311 L 12.125001 40.945014 L 42.97917 40.945014 L 42.97917 68.695016 L 60.416671 68.695016 L 60.416671 40.945014 L 91.27084 40.945014 L 91.27084 124.002311 L 60.416671 124.002311 L 60.416671 96.247101 L 42.97917 96.247101 L 42.97917 124.002311 Z M 12.125001 124.002311 " stroke="#fff9f9" stroke-width="8.900025" stroke-opacity="1" stroke-miterlimit="4"/><g fill="#171616" fill-opacity="1"><g transform="translate(171.14453, 227.455298)"><g><path d="M 0.890625 0 L 0.890625 -62.296875 L 24.03125 -62.296875 L 24.03125 -41.46875 L 37.109375 -41.46875 L 37.109375 -62.296875 L 60.25 -62.296875 L 60.25 0 L 37.109375 0 L 37.109375 -20.828125 L 24.03125 -20.828125 L 24.03125 0 Z M 0.890625 0 "/></g></g></g><path stroke-linecap="butt" transform="matrix(0.75, 0, 0, 0.75, 209.919672, 125.249992)" fill="none" stroke-linejoin="miter" d="M 51.872732 125.911478 C 47.044607 125.911478 42.492523 125.005228 38.226898 123.187519 C 33.956064 121.354186 30.200856 118.812519 26.956064 115.567727 C 23.711272 112.322935 21.180022 108.567726 19.367522 104.302101 C 17.549813 100.031268 16.643563 95.484392 16.643563 90.656267 C 16.643563 85.750017 17.549813 81.182308 19.367522 76.953141 C 21.180022 72.723974 23.711272 68.98439 26.956064 65.739599 C 30.200856 62.494807 33.956064 59.968765 38.226898 58.151056 C 42.492523 56.338556 47.044607 55.427098 51.872732 55.427098 C 56.773774 55.427098 61.341483 56.338556 65.575858 58.151056 C 69.82065 59.968765 73.560233 62.494807 76.784192 65.739599 C 80.028984 68.98439 82.560234 72.723974 84.372734 76.953141 C 86.211276 81.182308 87.127943 85.750017 87.127943 90.656267 C 87.127943 95.484392 86.211276 100.031268 84.372734 104.302101 C 82.560234 108.567726 80.028984 112.322935 76.784192 115.567727 C 73.560233 118.812519 69.82065 121.354186 65.575858 123.187519 C 61.341483 125.005228 56.773774 125.911478 51.872732 125.911478 Z M 51.872732 84.598975 C 50.211274 84.598975 48.778982 85.197933 47.581065 86.39585 C 46.403982 87.572933 45.81544 88.994808 45.81544 90.656267 C 45.81544 92.317725 46.403982 93.744809 47.581065 94.942726 C 48.778982 96.119809 50.211274 96.708351 51.872732 96.708351 C 53.53419 96.708351 54.950857 96.119809 56.127941 94.942726 C 57.325857 93.744809 57.924816 92.317725 57.924816 90.656267 C 57.924816 88.994808 57.325857 87.572933 56.127941 86.39585 C 54.950857 85.197933 53.53419 84.598975 51.872732 84.598975 Z M 51.872732 84.598975 " stroke="#fff9f9" stroke-width="8.900025" stroke-opacity="1" stroke-miterlimit="4"/><g fill="#171616" fill-opacity="1"><g transform="translate(221.685297, 218.249986)"><g><path d="M 27.140625 1.421875 C 23.523438 1.421875 20.113281 0.738281 16.90625 -0.625 C 13.707031 -1.988281 10.890625 -3.882812 8.453125 -6.3125 C 6.023438 -8.75 4.128906 -11.566406 2.765625 -14.765625 C 1.398438 -17.972656 0.71875 -21.390625 0.71875 -25.015625 C 0.71875 -28.691406 1.398438 -32.113281 2.765625 -35.28125 C 4.128906 -38.457031 6.023438 -41.257812 8.453125 -43.6875 C 10.890625 -46.125 13.707031 -48.023438 16.90625 -49.390625 C 20.113281 -50.753906 23.523438 -51.4375 27.140625 -51.4375 C 30.816406 -51.4375 34.242188 -50.753906 37.421875 -49.390625 C 40.597656 -48.023438 43.398438 -46.125 45.828125 -43.6875 C 48.265625 -41.257812 50.164062 -38.457031 51.53125 -35.28125 C 52.894531 -32.113281 53.578125 -28.691406 53.578125 -25.015625 C 53.578125 -21.390625 52.894531 -17.972656 51.53125 -14.765625 C 50.164062 -11.566406 48.265625 -8.75 45.828125 -6.3125 C 43.398438 -3.882812 40.597656 -1.988281 37.421875 -0.625 C 34.242188 0.738281 30.816406 1.421875 27.140625 1.421875 Z M 27.140625 -29.546875 C 25.898438 -29.546875 24.832031 -29.097656 23.9375 -28.203125 C 23.050781 -27.316406 22.609375 -26.253906 22.609375 -25.015625 C 22.609375 -23.765625 23.050781 -22.691406 23.9375 -21.796875 C 24.832031 -20.910156 25.898438 -20.46875 27.140625 -20.46875 C 28.390625 -20.46875 29.457031 -20.910156 30.34375 -21.796875 C 31.238281 -22.691406 31.6875 -23.765625 31.6875 -25.015625 C 31.6875 -26.253906 31.238281 -27.316406 30.34375 -28.203125 C 29.457031 -29.097656 28.390625 -29.546875 27.140625 -29.546875 Z M 27.140625 -29.546875 "/></g></g></g><path stroke-linecap="butt" transform="matrix(0.805951, 0, 0, 0.805951, 258.498386, 133.791349)" fill="none" stroke-linejoin="miter" d="M 36.183073 125.911166 C 31.355699 125.911166 26.804591 125.004822 22.539441 123.187287 C 18.269445 121.355211 14.513205 118.815508 11.270722 115.568178 C 8.023392 112.325695 5.493383 108.569456 3.680694 104.299459 C 1.863159 100.03431 0.956815 95.483201 0.956815 90.655827 C 0.956815 85.750905 1.863159 81.180409 3.680694 76.954034 C 5.493383 72.722811 8.023392 68.985959 11.270722 65.743476 C 14.513205 62.496146 18.269445 59.966137 22.539441 58.153448 C 26.804591 56.335913 31.355699 55.429568 36.183073 55.429568 C 41.087995 55.429568 45.658491 56.335913 49.884867 58.153448 C 54.135476 59.966137 57.872329 62.496146 61.095425 65.743476 C 64.342755 68.985959 66.872764 72.722811 68.685452 76.954034 C 70.522375 81.180409 71.438413 85.750905 71.438413 90.655827 C 71.438413 95.483201 70.522375 100.03431 68.685452 104.299459 C 66.872764 108.569456 64.342755 112.325695 61.095425 115.568178 C 57.872329 118.815508 54.135476 121.355211 49.884867 123.187287 C 45.658491 125.004822 41.087995 125.911166 36.183073 125.911166 Z M 36.183073 84.602223 C 34.520634 84.602223 33.09084 85.198374 31.89369 86.395524 C 30.715927 87.573287 30.129469 88.993388 30.129469 90.655827 C 30.129469 92.318266 30.715927 93.748061 31.89369 94.945211 C 33.09084 96.122973 34.520634 96.709431 36.183073 96.709431 C 37.845512 96.709431 39.265613 96.122973 40.443376 94.945211 C 41.640526 93.748061 42.236678 92.318266 42.236678 90.655827 C 42.236678 88.993388 41.640526 87.573287 40.443376 86.395524 C 39.265613 85.198374 37.845512 84.602223 36.183073 84.602223 Z M 36.183073 84.602223 " stroke="#fff9f9" stroke-width="8.900025" stroke-opacity="1" stroke-miterlimit="4"/><g fill="#171616" fill-opacity="1"><g transform="translate(258.498386, 233.729226)"><g><path d="M 29.171875 1.53125 C 25.285156 1.53125 21.617188 0.796875 18.171875 -0.671875 C 14.722656 -2.140625 11.691406 -4.179688 9.078125 -6.796875 C 6.472656 -9.410156 4.4375 -12.4375 2.96875 -15.875 C 1.5 -19.320312 0.765625 -22.988281 0.765625 -26.875 C 0.765625 -30.832031 1.5 -34.515625 2.96875 -37.921875 C 4.4375 -41.328125 6.472656 -44.335938 9.078125 -46.953125 C 11.691406 -49.566406 14.722656 -51.609375 18.171875 -53.078125 C 21.617188 -54.546875 25.285156 -55.28125 29.171875 -55.28125 C 33.117188 -55.28125 36.796875 -54.546875 40.203125 -53.078125 C 43.617188 -51.609375 46.632812 -49.566406 49.25 -46.953125 C 51.863281 -44.335938 53.90625 -41.328125 55.375 -37.921875 C 56.84375 -34.515625 57.578125 -30.832031 57.578125 -26.875 C 57.578125 -22.988281 56.84375 -19.320312 55.375 -15.875 C 53.90625 -12.4375 51.863281 -9.410156 49.25 -6.796875 C 46.632812 -4.179688 43.617188 -2.140625 40.203125 -0.671875 C 36.796875 0.796875 33.117188 1.53125 29.171875 1.53125 Z M 29.171875 -31.75 C 27.828125 -31.75 26.675781 -31.269531 25.71875 -30.3125 C 24.769531 -29.363281 24.296875 -28.21875 24.296875 -26.875 C 24.296875 -25.53125 24.769531 -24.378906 25.71875 -23.421875 C 26.675781 -22.472656 27.828125 -22 29.171875 -22 C 30.503906 -22 31.648438 -22.472656 32.609375 -23.421875 C 33.566406 -24.378906 34.046875 -25.53125 34.046875 -26.875 C 34.046875 -28.21875 33.566406 -29.363281 32.609375 -30.3125 C 31.648438 -31.269531 30.503906 -31.75 29.171875 -31.75 Z M 29.171875 -31.75 "/></g></g></g><path stroke-linecap="butt" transform="matrix(0.805951, 0, 0, 0.805951, 295.822396, 129.811383)" fill="none" stroke-linejoin="miter" d="M 19.699498 70.608999 L 1.189718 70.608999 L 1.189718 40.941975 L 68.947436 40.941975 L 68.947436 70.608999 L 50.437656 70.608999 L 50.437656 124.000918 L 19.699498 124.000918 Z M 19.699498 70.608999 " stroke="#fff9f9" stroke-width="8.900025" stroke-opacity="1" stroke-miterlimit="4"/><g fill="#171616" fill-opacity="1"><g transform="translate(295.822396, 229.74926)"><g><path d="M 15.875 -43.03125 L 0.953125 -43.03125 L 0.953125 -66.953125 L 55.5625 -66.953125 L 55.5625 -43.03125 L 40.640625 -43.03125 L 40.640625 0 L 15.875 0 Z M 15.875 -43.03125 "/></g></g></g></svg>